<svg xmlns="http://www.w3.org/2000/svg" width="636.761904835701" height="511.6031742095947" style=""><rect id="backgroundrect" width="100%" height="100%" x="0" y="0" fill="none" stroke="none"/><g class="currentLayer" style=""><title>Layer 1</title><path d="M696.4305248260498,295.8227062225342 L638.1905345916748,247.9327220916748 V152.41268730163574 a8,8 0 0 0 -8,-8 h-32 a8,8 0 0 0 -7.949999809265137,7.880000114440918 v56.220001220703125 L450.0604991912842,93.41269493103027 a56.060001373291016,56.060001373291016 0 0 0 -71.73999786376953,0 L131.95048332214355,295.8227062225342 a16,16 0 0 0 -2,22.540000915527344 L140.19047355651855,330.66273307800293 a16,16 0 0 0 22.530000686645508,2 L190.19047355651855,310.1027355194092 V496.4127025604248 a32.09000015258789,32.09000015258789 0 0 0 32,32 h128 a32.09000015258789,32.09000015258789 0 0 0 32,-32 V392.41273307800293 h64 v104 a32.09000015258789,32.09000015258789 0 0 0 32,32 h128 a32.06999969482422,32.06999969482422 0 0 0 32,-31.760000228881836 V310.0827465057373 l27.530000686645508,22.6200008392334 a16,16 0 0 0 22.530000686645508,-2 L698.4805126190186,318.41273307800293 a16,16 0 0 0 -2.049999952316284,-22.59000015258789 zM590.0405101776123,480.41273307800293 H494.19047355651855 V376.41273307800293 a32.09000015258789,32.09000015258789 0 0 0 -32,-32 h-96 a32.09000015258789,32.09000015258789 0 0 0 -32,32 v104 h-96 V270.6827220916748 L414.19047355651855,126.06269645690918 l176,144.55999755859375 z" id="svg_1" class="" fill="#ffffff" fill-opacity="1" opacity="1" stroke-width="21" stroke="#ffffff" stroke-opacity="1" transform="translate(-92.8571, -50)"/></g></svg>