<?xml version="1.0" encoding="UTF-8" standalone="no"?>
<!-- Created with Inkscape (http://www.inkscape.org/) -->

<svg
   xmlns:dc="http://purl.org/dc/elements/1.1/"
   xmlns:cc="http://creativecommons.org/ns#"
   xmlns:rdf="http://www.w3.org/1999/02/22-rdf-syntax-ns#"
   xmlns:svg="http://www.w3.org/2000/svg"
   xmlns="http://www.w3.org/2000/svg"
   xmlns:sodipodi="http://sodipodi.sourceforge.net/DTD/sodipodi-0.dtd"
   xmlns:inkscape="http://www.inkscape.org/namespaces/inkscape"
   width="2000"
   height="800"
   id="svg2"
   version="1.1"
   inkscape:version="0.48.4 r9939"
   sodipodi:docname="New document 1">
  <defs
     id="defs4" />
  <sodipodi:namedview
     id="base"
     pagecolor="#ffffff"
     bordercolor="#666666"
     borderopacity="1.0"
     inkscape:pageopacity="0.0"
     inkscape:pageshadow="2"
     inkscape:zoom="0.24748737"
     inkscape:cx="1505.4191"
     inkscape:cy="1284.5248"
     inkscape:document-units="px"
     inkscape:current-layer="layer1"
     showgrid="false"
     inkscape:window-width="1600"
     inkscape:window-height="838"
     inkscape:window-x="-8"
     inkscape:window-y="-8"
     inkscape:window-maximized="1" />
  <metadata
     id="metadata7">
    <rdf:RDF>
      <cc:Work
         rdf:about="">
        <dc:format>image/svg+xml</dc:format>
        <dc:type
           rdf:resource="http://purl.org/dc/dcmitype/StillImage" />
        <dc:title></dc:title>
      </cc:Work>
    </rdf:RDF>
  </metadata>
  <g
     inkscape:label="Layer 1"
     inkscape:groupmode="layer"
     id="layer1"
     transform="translate(0,-252.36217)">
    <g
       id="g3800"
       transform="translate(-12.121831,278.8021)">
      <path
         transform="matrix(0.97138061,0,0,0.99317671,897.79666,-354.42405)"
         d="m 1108.5714,742.36218 c 0,190.14375 -447.07564,344.28572 -998.5714,344.28572 -551.49576,0 -998.57141,-154.14197 -998.57141,-344.28572 0,-190.14374 447.07565,-344.2857 998.57141,-344.2857 551.49576,0 998.5714,154.14196 998.5714,344.2857 z"
         sodipodi:ry="344.28571"
         sodipodi:rx="998.57141"
         sodipodi:cy="742.36218"
         sodipodi:cx="110"
         id="path2996"
         style="fill:#295079;fill-opacity:1;stroke:#000000;stroke-width:2;stroke-miterlimit:4;stroke-opacity:1;stroke-dasharray:none"
         sodipodi:type="arc" />
      <g
         transform="matrix(0.97697658,0,0,0.97697658,897.6524,427.9123)"
         id="g3789">
        <path
           style="fill:#ffffff;stroke:#000000;stroke-width:1;stroke-linecap:butt;stroke-linejoin:miter;stroke-miterlimit:4;stroke-opacity:1;stroke-dasharray:none"
           d="m 582.85714,84.077905 249.28572,0 c 15.9142,0 45.70922,-0.89159 45.54792,-29.28071 l -0.54792,-96.43357 c -0.26111,-45.9544 -71.79102,-66.507475 -102.85715,-48.57143 -31.06613,17.93604 -117.02385,102.78655 -140.00332,125.70918 -7.3736,10.887529 8.15302,15.613622 14.7954,8.93415 l 96.6365,-83.21476 c 15.21882,-13.10509 57.14285,-9.2883 57.14285,20 l 0,62.14286 c 0.10572,15.16776 2.47754,12.14285 -12.14285,12.14285 l -208.92857,0 c -23.20482,-0.50394 -22.3935,28.94487 1.07142,28.57143 z"
           id="path2998"
           inkscape:connector-curvature="0"
           sodipodi:nodetypes="ccsszccsscccc" />
        <path
           style="fill:#ffffff;stroke:#000000;stroke-width:1;stroke-linecap:butt;stroke-linejoin:miter;stroke-miterlimit:4;stroke-opacity:1;stroke-dasharray:none"
           d="m 488.91383,-18.764805 66.67007,-55.55839 0,140.00825 c 0,19.27328 -6.37227,24.64661 -27.19104,24.64661 l -180.90038,0 c -39.57159,0 -38.3858,1.48721 -38.3858,-36.36549 l 0,-178.797005 73.74113,-73.74113 0,257.471295 c 0,8.43633 3.06266,10.21913 11.25933,10.21913 l 83.57143,0 c 9.83252,0.021 12.21984,-2.22492 12.11153,-11.64734 z"
           id="path3768"
           inkscape:connector-curvature="0"
           sodipodi:nodetypes="ccccccccccccc" />
        <path
           style="fill:#ffffff;stroke:#000000;stroke-width:1px;stroke-linecap:butt;stroke-linejoin:miter;stroke-opacity:1"
           d="M 198.57143,-114.49352 270,-181.63639 l 0,212.857165 -70,57.14284 z"
           id="path3770"
           inkscape:connector-curvature="0" />
        <path
           sodipodi:type="arc"
           style="fill:#ffffff;fill-opacity:1;stroke:#000000;stroke-width:1;stroke-miterlimit:4;stroke-opacity:1;stroke-dasharray:none"
           id="path3772"
           sodipodi:cx="111.42857"
           sodipodi:cy="840.93359"
           sodipodi:rx="45.714287"
           sodipodi:ry="45.714287"
           d="m 157.14286,840.93359 c 0,25.24731 -20.46698,45.71429 -45.71429,45.71429 -25.2473,0 -45.714283,-20.46698 -45.714283,-45.71429 0,-25.2473 20.466983,-45.71428 45.714283,-45.71428 25.24731,0 45.71429,20.46698 45.71429,45.71428 z"
           transform="translate(0,-789.99855)" />
        <path
           d="m 157.14286,840.93359 c 0,25.24731 -20.46698,45.71429 -45.71429,45.71429 -25.2473,0 -45.714283,-20.46698 -45.714283,-45.71429 0,-25.2473 20.466983,-45.71428 45.714283,-45.71428 25.24731,0 45.71429,20.46698 45.71429,45.71428 z"
           sodipodi:ry="45.714287"
           sodipodi:rx="45.714287"
           sodipodi:cy="840.93359"
           sodipodi:cx="111.42857"
           id="path3774"
           style="fill:#ffffff;fill-opacity:1;stroke:#000000;stroke-width:1;stroke-miterlimit:4;stroke-opacity:1;stroke-dasharray:none"
           sodipodi:type="arc"
           transform="translate(-102.85714,-789.99855)" />
        <path
           style="fill:#ffffff;stroke:#000000;stroke-width:1px;stroke-linecap:butt;stroke-linejoin:miter;stroke-opacity:1"
           d="M -202.85714,72.649335 30,-145.92209 c 57.381506,-53.63038 132.26162,-22.5767 125.71429,60.000005 l -72.857147,57.14286 c 0,0 0,-45.9451 0,-70 C 82.577415,-121.1492 52.068952,-142.14485 25.714286,-117.35066 L -191.42857,86.935055 c -9.16637,8.62363 -22.92323,-3.49625 -11.42857,-14.28572 z"
           id="path3776"
           inkscape:connector-curvature="0"
           sodipodi:nodetypes="sccccsss" />
        <path
           inkscape:connector-curvature="0"
           id="path3778"
           d="m -280,-114.49352 71.42857,-67.14287 0,212.857165 -70,57.14284 z"
           style="fill:#ffffff;stroke:#000000;stroke-width:1px;stroke-linecap:butt;stroke-linejoin:miter;stroke-opacity:1" />
        <path
           style="fill:#ffffff;stroke:#000000;stroke-width:1px;stroke-linecap:butt;stroke-linejoin:miter;stroke-opacity:1"
           d="m -585.0625,-172.56107 -73.59375,75.843765 0.79688,115.90625 c 0,83.949355 67.94662,113.942865 125.32812,60.3125 L -299.6875,-139.06107 c 8.62099,-8.0921 3.04112,-16.94237 -4.15625,-17.21875 -2.39912,-0.0921 -4.98966,0.78159 -7.28125,2.9375 L -528.25,50.938945 c -26.35467,24.79419 -56.87652,3.80747 -57.15625,-18.5625 l 0.17188,-26.3750001 z"
           id="path3780"
           inkscape:connector-curvature="0"
           sodipodi:nodetypes="ccccssccccc" />
        <path
           transform="translate(-595.71428,-953.42714)"
           sodipodi:type="arc"
           style="fill:#ffffff;fill-opacity:1;stroke:#000000;stroke-width:1;stroke-miterlimit:4;stroke-opacity:1;stroke-dasharray:none"
           id="path3787"
           sodipodi:cx="111.42857"
           sodipodi:cy="840.93359"
           sodipodi:rx="45.714287"
           sodipodi:ry="45.714287"
           d="m 157.14286,840.93359 c 0,25.24731 -20.46698,45.71429 -45.71429,45.71429 -25.2473,0 -45.714283,-20.46698 -45.714283,-45.71429 0,-25.2473 20.466983,-45.71428 45.714283,-45.71428 25.24731,0 45.71429,20.46698 45.71429,45.71428 z" />
      </g>
    </g>
  </g>
</svg>
