<svg xmlns="http://www.w3.org/2000/svg" width="576" height="512"><rect id="backgroundrect" width="100%" height="100%" x="0" y="0" fill="none" stroke="none"/><g class="currentLayer" style=""><title>Layer 1</title><path d="M310.5287265777588,142.70443868637085 L126.15873146057129,294.5544295310974 V458.4444441795349 a16,16 0 0 0 16,16 l112.05999755859375,-0.28999999165534973 a16,16 0 0 0 15.920000076293945,-16 V362.4444441795349 a16,16 0 0 1 16,-16 h64 a16,16 0 0 1 16,16 v95.63999938964844 a16,16 0 0 0 16,16.049999237060547 L494.1587314605713,474.4444441795349 a16,16 0 0 0 16,-16 V294.4444441795349 L325.82874488830566,142.70443868637085 a12.1899995803833,12.1899995803833 0 0 0 -15.300000190734863,0 zM601.7587070465088,245.91444540023804 L348.6287326812744,37.44444417953491 a48,48 0 0 0 -61,0 L34.49873161315918,245.91444540023804 a12,12 0 0 0 -1.600000023841858,16.899999618530273 l25.5,31 A12,12 0 0 0 75.3087329864502,295.4444441795349 l235.22000122070312,-193.74000549316406 a12.1899995803833,12.1899995803833 0 0 1 15.300000190734863,0 L561.0587558746338,295.4444441795349 a12,12 0 0 0 16.899999618530273,-1.600000023841858 l25.5,-31 a12,12 0 0 0 -1.7000000476837158,-16.93000030517578 z" id="svg_1" class="selected" fill="#ffffff" fill-opacity="1"/></g></svg>